<svg xmlns="http://www.w3.org/2000/svg" version="1.1" width="65" height="57" viewBox="0 0 65 57" class="scratchblocks-style-scratch3"><g><g transform="translate(0 0)"><g transform="translate(0.5 0.5)"><path style="fill: var(--block-fill); stroke: var(--block-stroke);" d="M 0 4&#10;      A 4 4 0 0 1 4 0&#10;      H 12 c 2 0 3 1 4 2&#10;      l 4 4&#10;      c 1 1 2 2 4 2&#10;      h 12&#10;      c 2 0 3 -1 4 -2&#10;      l 4 -4&#10;      c 1 -1 2 -2 4 -2&#10;      L 60 0&#10;      a 4 4 0 0 1 4 4 L 64 44 a 4 4 0 0 1 -4 4 L 48 48 c -2 0 -3 1 -4 2 l -4 4 c -1 1 -2 2 -4 2 h -12 c -2 0 -3 -1 -4 -2 l -4 -4 c -1 -1 -2 -2 -4 -2 L 4 48 a 4 4 0 0 1 -4 -4 Z"/></g></g></g></svg>